<?xml version="1.0" standalone="no"?>
<!DOCTYPE svg PUBLIC "-//W3C//DTD SVG 20010904//EN"
 "http://www.w3.org/TR/2001/REC-SVG-20010904/DTD/svg10.dtd">
<svg version="1.0" xmlns="http://www.w3.org/2000/svg"
 width="512.000000pt" height="512.000000pt" viewBox="0 0 512.000000 512.000000"
 preserveAspectRatio="xMidYMid meet">
<metadata>
Created by potrace 1.14, written by Peter Selinger 2001-2017
</metadata>
<g transform="translate(0.000000,512.000000) scale(0.100000,-0.100000)"
fill="#000000" stroke="none">
<path d="M628 5100 c-301 -74 -536 -311 -608 -613 -19 -80 -20 -125 -20 -1927
0 -1802 1 -1847 20 -1927 73 -305 308 -540 613 -613 80 -19 125 -20 1927 -20
1802 0 1847 1 1927 20 305 73 540 308 613 613 19 80 20 125 20 1927 0 1802 -1
1847 -20 1927 -73 305 -308 540 -613 613 -80 19 -124 20 -1932 19 -1780 0
-1853 -1 -1927 -19z m-141 -161 c0 -22 7 -47 15 -55 13 -13 272 -15 2062 -15
1535 -1 2051 2 2061 11 8 6 15 30 17 53 4 54 21 57 95 21 101 -49 219 -185
225 -259 1 -14 6 -25 11 -25 4 0 5 -5 2 -10 -5 -8 -12 -7 -22 2 -8 6 -34 14
-58 15 -32 3 -44 0 -49 -13 -4 -9 -1 -66 5 -127 18 -167 6 -675 -20 -847 -27
-185 -52 -313 -75 -395 l-15 -50 0 113 -1 112 -625 0 -625 0 0 -125 0 -125
250 0 250 0 0 -663 0 -664 -168 -179 c-352 -375 -588 -564 -899 -722 -135 -69
-329 -152 -353 -152 -7 0 -68 -18 -136 -39 -68 -22 -140 -43 -161 -46 -21 -3
-76 -13 -123 -20 -139 -24 -321 -45 -383 -45 -58 0 -439 -37 -467 -45 -8 -2
-55 -9 -105 -16 -134 -16 -136 -16 -185 -26 -25 -5 -62 -9 -82 -8 -21 0 -38
-2 -38 -5 0 -3 -46 -4 -102 -4 -117 2 -266 33 -280 58 -5 9 -15 16 -21 16 -28
0 -127 119 -127 153 0 7 -6 21 -14 32 -16 24 -41 138 -56 250 -28 227 -33 489
-36 1979 -2 1307 -5 1531 -17 1543 -8 8 -34 15 -58 16 -43 2 -44 3 -40 32 13
110 185 288 306 315 40 9 42 7 42 -41z m4243 -1738 c0 -10 -13 -51 -30 -91
-16 -40 -30 -77 -30 -83 0 -17 -61 -179 -97 -253 -18 -39 -33 -74 -33 -78 0
-13 -44 -102 -64 -131 -12 -16 -30 -48 -41 -70 -11 -22 -30 -54 -42 -71 -13
-17 -23 -34 -23 -38 0 -4 -20 -33 -44 -64 -23 -31 -51 -72 -60 -89 -9 -18 -19
-33 -21 -33 -3 0 -5 230 -5 510 l0 510 245 0 c232 0 245 -1 245 -19z"/>
<path d="M490 2602 l0 -882 625 0 625 0 0 125 0 125 -500 0 -500 0 0 375 0
375 250 0 250 0 0 125 0 125 -250 0 -250 0 0 125 0 125 500 0 500 0 0 125 0
125 -482 0 c-266 0 -547 3 -625 7 l-143 6 0 -881z"/>
<path d="M1990 2850 l0 -130 125 0 125 0 0 -125 0 -125 125 0 126 0 -3 -122
-3 -123 -122 -3 -123 -3 0 -124 0 -125 -125 0 -125 0 0 -125 0 -125 125 0 125
0 0 125 0 125 125 0 125 0 0 125 0 125 126 0 127 0 -5 -125 -6 -125 124 0 124
0 0 -125 0 -125 130 0 130 0 0 125 0 125 -125 0 -125 0 0 125 0 125 -125 0
-125 0 0 125 0 125 125 0 125 0 0 125 0 124 123 3 122 3 0 125 0 125 -125 0
-125 0 -3 -122 -3 -123 -119 0 -119 0 -3 -127 -3 -128 -122 -3 -123 -3 0 131
0 130 -125 0 -125 0 0 125 0 125 -125 0 -125 0 0 -130z"/>
</g>
</svg>
